<svg width="16" height="17" viewBox="0 0 16 17" fill="none" xmlns="http://www.w3.org/2000/svg">
<path fill-rule="evenodd" clip-rule="evenodd" d="M8.32274 7.58923C7.27684 8.51106 7.88709 9.0597 9.51988 10.2231C11.1528 11.385 11.6098 13.9572 9.49843 15.8228C7.38615 17.688 0.963265 17.4378 0.963265 13.9771C0.963265 10.5161 5.79632 10.4634 6.18994 10.4634C6.58055 10.4634 6.6469 10.3538 6.31971 10.0024C5.99259 9.6527 5.46922 8.97213 6.08054 8.22573C4.99064 8.2701 1.98674 7.67709 1.98674 4.91042C1.98674 2.14464 4.88226 0.960704 5.92626 0.960704H11.1303C11.1303 0.960704 10.8921 1.15877 10.3472 1.46406C9.80226 1.77144 8.77971 1.61923 8.77971 1.61923C8.77971 1.61923 10.1947 2.4955 10.1947 4.2081C10.1947 5.92101 9.36759 6.66741 8.32274 7.58923ZM6.42809 7.54456C3.83633 7.54456 2.66057 1.48758 5.70946 1.48758C8.08243 1.39853 9.86769 7.54456 6.42809 7.54456ZM2.81295 13.3403C2.81295 14.9424 3.96726 16.0179 6.12052 16.0179C8.27302 16.0179 9.5414 15.2942 9.5414 13.8011C9.5414 12.533 8.5161 11.804 7.71869 11.237C7.57641 11.1358 7.44138 11.0398 7.32073 10.9468C4.38133 10.9468 2.81295 11.7364 2.81295 13.3403ZM14.0151 2.96997V1.00032H12.9975V2.96997H11.0054V3.99277H12.9975V5.96509H14.0151V3.99277H15.974V2.96997H14.0151Z" fill="#3C3C3C"/>
</svg>
