<svg width="20" height="20" viewBox="0 0 20 20" fill="none" xmlns="http://www.w3.org/2000/svg">
<path fill-rule="evenodd" clip-rule="evenodd" d="M15.5228 0.997768H4.47715C2.55837 0.997768 0.997516 2.55848 0.997516 4.47749V8.1523V15.5234C0.997516 17.4424 2.55837 19.0028 4.47715 19.0028H15.5228C17.4416 19.0028 19.0025 17.4424 19.0025 15.5234V8.1523V4.47749C19.0025 2.55848 17.4416 0.997768 15.5228 0.997768ZM16.6186 3.0106L17.0124 3.00912V3.39751V5.99858L14.0021 6.00782L13.992 3.01895L16.6186 3.0106ZM9.99996 6.98802C12.4964 6.98802 13.0124 9.33236 13.0124 10.0007C13.0124 11.6606 11.6602 13.0119 9.99996 13.0119C8.33905 13.0119 6.98788 11.6606 6.98788 10.0007C6.98788 9.33236 7.50317 6.98802 9.99996 6.98802ZM17.0295 15.3047C17.0295 16.256 16.2557 17.0298 15.3041 17.0298H4.66457C3.71303 17.0298 2.93914 16.256 2.93914 15.3047V7.99622H5.43936C5.20739 8.5672 5.07687 9.34694 5.07687 10.0007C5.07687 12.7144 7.28504 14.9235 9.99996 14.9235C12.715 14.9235 14.9231 12.7144 14.9231 10.0007C14.9231 9.34694 14.7919 8.5672 14.5599 7.99622H17.0295V15.3047Z" fill="#3C3C3C"/>
</svg>
