<svg width="16" height="21" viewBox="0 0 16 21" fill="none" xmlns="http://www.w3.org/2000/svg">
<path fill-rule="evenodd" clip-rule="evenodd" d="M8.48413 0.00642C2.84723 0.00642 0.00488 3.91978 0.00488 7.18268C0.00488 9.15858 0.777344 10.9165 2.43435 11.5714C2.70605 11.6789 2.94954 11.575 3.02832 11.284C3.08298 11.0829 3.2129 10.5739 3.27082 10.3619C3.35 10.0741 3.31946 9.97318 3.10008 9.7218C2.62235 9.17644 2.31685 8.46996 2.31685 7.4686C2.31685 4.56552 4.5604 1.96682 8.15819 1.96682C11.3444 1.96682 13.095 3.85188 13.095 6.36896C13.095 9.68158 11.5808 12.4775 9.33346 12.4775C8.09235 12.4775 7.16326 11.4838 7.46083 10.2642C7.81765 8.8095 8.50826 7.23866 8.50826 6.18788C8.50826 5.24788 7.98696 4.46336 6.90816 4.46336C5.63962 4.46336 4.62006 5.73456 4.62006 7.43704C4.62006 8.52118 4.9985 9.25478 4.9985 9.25478C4.9985 9.25478 3.70006 14.5817 3.47242 15.5152C3.01922 17.3731 3.40432 19.6501 3.43704 19.8804C3.45598 20.0168 3.6369 20.0496 3.71893 19.9468C3.83566 19.7985 5.34722 17.992 5.86083 16.1868C6.00643 15.6757 6.6953 13.0288 6.6953 13.0288C7.10752 13.7907 8.3124 14.4605 9.59355 14.4605C13.4076 14.4605 15.9951 11.0943 15.9951 6.58758C15.9951 3.17994 13.0144 0.00642 8.48413 0.00642Z" fill="#3C3C3C"/>
</svg>
